# xmcd
#
# Track frame offsets: 
#        150
#        14897
#        25875
#        37865
#        45394
#        56483
#        70805
#        83148
#        94845
#        105805
#        118342
#        127835
#        140211
#        150865
#        162462
#
# Disc length: 2320 seconds
#
# Revision: 0
# Processed by: cddbd v1.5.2PL0 Copyright (c) Steve Scherf et al.
# Submitted via: ExactAudioCopy v1.0b4
#
DISCID=bc090e0f
DTITLE=Various Artist - This is Rock and Roll
DYEAR=1900
DGENRE=Blues
TTITLE0=Elvis Presley - Elvis Presley - It's now or never
TTITLE1=Everly Brothers - Everly Brothers - Cathy's Clown
TTITLE2=Johnny Preston - Johnny Preston - Running Bear
TTITLE3=Maurice Williams - Maurice Williams - Stay
TTITLE4=Drifters - Drifters - Save the last dance for me
TTITLE5=Bobby Darin - Bobby Darin - Mack the knife
TTITLE6=Roy Orbison - Roy Orbison - I can't stop loving you
TTITLE7=Paul Anka - Paul Anka - Lonely Boy
TTITLE8=The Coasters - The Coasters - Charlie Brown
TTITLE9=Conway Twitty - Conway Twitty - Danny Boy
TTITLE10=Fats Domino - Fats Domino - Walking to New Orleans
TTITLE11=Neil Sedaka - Neil Sedaka - Stairway to heaven
TTITLE12=Ritchie Valens - Ritchie Valens - Donna
TTITLE13=Platters - Platters - Smoke gets in your eyes
TTITLE14=Lloyd Price - Lloyd Price - (You've got) Personality
EXTD=
EXTT0=
EXTT1=
EXTT2=
EXTT3=
EXTT4=
EXTT5=
EXTT6=
EXTT7=
EXTT8=
EXTT9=
EXTT10=
EXTT11=
EXTT12=
EXTT13=
EXTT14=
PLAYORDER=
